<svg xmlns="http://www.w3.org/2000/svg" xmlns:xlink="http://www.w3.org/1999/xlink" width="169" zoomAndPan="magnify" viewBox="0 0 126.75 30.750001" height="41" preserveAspectRatio="xMidYMid meet" version="1.0"><defs><g/><clipPath id="ba049c6885"><path d="M 3.4375 8.640625 L 27.988281 8.640625 L 27.988281 22 L 3.4375 22 Z M 3.4375 8.640625 " clip-rule="nonzero"/></clipPath><clipPath id="add3eece6f"><path d="M 17 15 L 27.988281 15 L 27.988281 22 L 17 22 Z M 17 15 " clip-rule="nonzero"/></clipPath></defs><g fill="#000000" fill-opacity="1"><g transform="translate(35.117106, 20.417023)"><g><path d="M 6.28125 -1.40625 C 6.90625 -1.40625 7.484375 -1.554688 8.015625 -1.859375 C 8.554688 -2.160156 9.007812 -2.554688 9.375 -3.046875 L 10.546875 -1.921875 C 10.023438 -1.304688 9.394531 -0.804688 8.65625 -0.421875 C 7.925781 -0.0351562 7.132812 0.15625 6.28125 0.15625 C 5.507812 0.15625 4.78125 0 4.09375 -0.3125 C 3.40625 -0.625 2.804688 -1.046875 2.296875 -1.578125 C 1.796875 -2.109375 1.394531 -2.726562 1.09375 -3.4375 C 0.800781 -4.15625 0.65625 -4.910156 0.65625 -5.703125 C 0.65625 -6.515625 0.800781 -7.273438 1.09375 -7.984375 C 1.394531 -8.691406 1.796875 -9.3125 2.296875 -9.84375 C 2.804688 -10.375 3.40625 -10.796875 4.09375 -11.109375 C 4.78125 -11.421875 5.507812 -11.578125 6.28125 -11.578125 C 7.007812 -11.578125 7.691406 -11.429688 8.328125 -11.140625 C 8.960938 -10.859375 9.535156 -10.488281 10.046875 -10.03125 L 9.046875 -8.75 C 8.691406 -9.125 8.273438 -9.429688 7.796875 -9.671875 C 7.328125 -9.921875 6.820312 -10.046875 6.28125 -10.046875 C 5.738281 -10.046875 5.226562 -9.929688 4.75 -9.703125 C 4.269531 -9.472656 3.851562 -9.15625 3.5 -8.75 C 3.144531 -8.351562 2.863281 -7.894531 2.65625 -7.375 C 2.445312 -6.851562 2.34375 -6.296875 2.34375 -5.703125 C 2.34375 -5.117188 2.445312 -4.5625 2.65625 -4.03125 C 2.863281 -3.507812 3.144531 -3.050781 3.5 -2.65625 C 3.851562 -2.269531 4.269531 -1.960938 4.75 -1.734375 C 5.226562 -1.515625 5.738281 -1.40625 6.28125 -1.40625 Z M 6.28125 -1.40625 "/></g></g></g><g fill="#000000" fill-opacity="1"><g transform="translate(45.137983, 20.417023)"><g><path d="M 5.5625 -6.28125 C 5.488281 -6.320312 5.414062 -6.359375 5.34375 -6.390625 C 5.269531 -6.410156 5.191406 -6.429688 5.109375 -6.453125 C 5.023438 -6.472656 4.9375 -6.484375 4.84375 -6.484375 C 4.53125 -6.484375 4.238281 -6.429688 3.96875 -6.328125 C 3.695312 -6.222656 3.460938 -6.082031 3.265625 -5.90625 C 3.078125 -5.738281 2.925781 -5.539062 2.8125 -5.3125 C 2.695312 -5.082031 2.640625 -4.835938 2.640625 -4.578125 L 2.625 0 L 1.0625 0 L 1.0625 -7.71875 L 2.3125 -7.71875 L 2.625 -6.875 C 2.84375 -7.1875 3.125 -7.4375 3.46875 -7.625 C 3.820312 -7.8125 4.265625 -7.90625 4.796875 -7.90625 C 5.140625 -7.90625 5.53125 -7.851562 5.96875 -7.75 Z M 5.5625 -6.28125 "/></g></g></g><g fill="#000000" fill-opacity="1"><g transform="translate(50.196504, 20.417023)"><g><path d="M 4.5625 0.1875 C 4 0.1875 3.472656 0.0820312 2.984375 -0.125 C 2.492188 -0.332031 2.066406 -0.617188 1.703125 -0.984375 C 1.335938 -1.347656 1.050781 -1.773438 0.84375 -2.265625 C 0.632812 -2.765625 0.53125 -3.296875 0.53125 -3.859375 C 0.53125 -4.410156 0.628906 -4.929688 0.828125 -5.421875 C 1.023438 -5.921875 1.289062 -6.351562 1.625 -6.71875 C 1.96875 -7.082031 2.363281 -7.367188 2.8125 -7.578125 C 3.269531 -7.796875 3.753906 -7.90625 4.265625 -7.90625 C 4.796875 -7.90625 5.285156 -7.8125 5.734375 -7.625 C 6.179688 -7.445312 6.566406 -7.160156 6.890625 -6.765625 C 7.222656 -6.378906 7.476562 -5.890625 7.65625 -5.296875 C 7.84375 -4.703125 7.9375 -3.988281 7.9375 -3.15625 L 2.1875 -3.15625 C 2.269531 -2.875 2.390625 -2.613281 2.546875 -2.375 C 2.710938 -2.132812 2.90625 -1.925781 3.125 -1.75 C 3.34375 -1.570312 3.585938 -1.429688 3.859375 -1.328125 C 4.128906 -1.234375 4.414062 -1.1875 4.71875 -1.1875 C 5.132812 -1.1875 5.515625 -1.257812 5.859375 -1.40625 C 6.210938 -1.5625 6.507812 -1.765625 6.75 -2.015625 L 7.71875 -1.046875 C 7.34375 -0.671875 6.882812 -0.367188 6.34375 -0.140625 C 5.800781 0.078125 5.207031 0.1875 4.5625 0.1875 Z M 4.265625 -6.484375 C 4.023438 -6.484375 3.789062 -6.429688 3.5625 -6.328125 C 3.34375 -6.234375 3.140625 -6.097656 2.953125 -5.921875 C 2.765625 -5.753906 2.601562 -5.550781 2.46875 -5.3125 C 2.34375 -5.082031 2.242188 -4.828125 2.171875 -4.546875 L 6.25 -4.546875 C 6.226562 -4.804688 6.171875 -5.050781 6.078125 -5.28125 C 5.984375 -5.519531 5.847656 -5.726562 5.671875 -5.90625 C 5.503906 -6.082031 5.300781 -6.222656 5.0625 -6.328125 C 4.832031 -6.429688 4.566406 -6.484375 4.265625 -6.484375 Z M 4.265625 -6.484375 "/></g></g></g><g fill="#000000" fill-opacity="1"><g transform="translate(57.70398, 20.417023)"><g><path d="M 2.828125 0 L 0.21875 -7.71875 L 1.890625 -7.71875 L 3.6875 -1.890625 L 5.59375 -7.71875 L 6.984375 -7.71875 L 8.890625 -1.9375 L 10.671875 -7.71875 L 12.328125 -7.71875 L 9.734375 0 L 8.03125 0 L 6.421875 -4.71875 L 6.28125 -5.46875 L 6.15625 -4.71875 L 4.5625 0 Z M 2.828125 0 "/></g></g></g><g fill="#000000" fill-opacity="1"><g transform="translate(69.174897, 20.417023)"><g/></g></g><g fill="#000000" fill-opacity="1"><g transform="translate(72.348377, 20.417023)"><g><path d="M 6.28125 -1.40625 C 6.90625 -1.40625 7.484375 -1.554688 8.015625 -1.859375 C 8.554688 -2.160156 9.007812 -2.554688 9.375 -3.046875 L 10.546875 -1.921875 C 10.023438 -1.304688 9.394531 -0.804688 8.65625 -0.421875 C 7.925781 -0.0351562 7.132812 0.15625 6.28125 0.15625 C 5.507812 0.15625 4.78125 0 4.09375 -0.3125 C 3.40625 -0.625 2.804688 -1.046875 2.296875 -1.578125 C 1.796875 -2.109375 1.394531 -2.726562 1.09375 -3.4375 C 0.800781 -4.15625 0.65625 -4.910156 0.65625 -5.703125 C 0.65625 -6.515625 0.800781 -7.273438 1.09375 -7.984375 C 1.394531 -8.691406 1.796875 -9.3125 2.296875 -9.84375 C 2.804688 -10.375 3.40625 -10.796875 4.09375 -11.109375 C 4.78125 -11.421875 5.507812 -11.578125 6.28125 -11.578125 C 7.007812 -11.578125 7.691406 -11.429688 8.328125 -11.140625 C 8.960938 -10.859375 9.535156 -10.488281 10.046875 -10.03125 L 9.046875 -8.75 C 8.691406 -9.125 8.273438 -9.429688 7.796875 -9.671875 C 7.328125 -9.921875 6.820312 -10.046875 6.28125 -10.046875 C 5.738281 -10.046875 5.226562 -9.929688 4.75 -9.703125 C 4.269531 -9.472656 3.851562 -9.15625 3.5 -8.75 C 3.144531 -8.351562 2.863281 -7.894531 2.65625 -7.375 C 2.445312 -6.851562 2.34375 -6.296875 2.34375 -5.703125 C 2.34375 -5.117188 2.445312 -4.5625 2.65625 -4.03125 C 2.863281 -3.507812 3.144531 -3.050781 3.5 -2.65625 C 3.851562 -2.269531 4.269531 -1.960938 4.75 -1.734375 C 5.226562 -1.515625 5.738281 -1.40625 6.28125 -1.40625 Z M 6.28125 -1.40625 "/></g></g></g><g fill="#000000" fill-opacity="1"><g transform="translate(82.369253, 20.417023)"><g><path d="M 4.296875 0.1875 C 3.753906 0.1875 3.25 0.0820312 2.78125 -0.125 C 2.3125 -0.332031 1.898438 -0.617188 1.546875 -0.984375 C 1.203125 -1.347656 0.925781 -1.773438 0.71875 -2.265625 C 0.519531 -2.765625 0.421875 -3.296875 0.421875 -3.859375 C 0.421875 -4.410156 0.519531 -4.929688 0.71875 -5.421875 C 0.925781 -5.921875 1.203125 -6.351562 1.546875 -6.71875 C 1.898438 -7.082031 2.3125 -7.367188 2.78125 -7.578125 C 3.25 -7.796875 3.753906 -7.90625 4.296875 -7.90625 C 4.816406 -7.90625 5.3125 -7.796875 5.78125 -7.578125 C 6.257812 -7.367188 6.671875 -7.082031 7.015625 -6.71875 C 7.367188 -6.351562 7.644531 -5.921875 7.84375 -5.421875 C 8.050781 -4.929688 8.15625 -4.410156 8.15625 -3.859375 C 8.15625 -3.296875 8.050781 -2.765625 7.84375 -2.265625 C 7.644531 -1.773438 7.367188 -1.347656 7.015625 -0.984375 C 6.671875 -0.617188 6.257812 -0.332031 5.78125 -0.125 C 5.3125 0.0820312 4.816406 0.1875 4.296875 0.1875 Z M 4.296875 -6.5 C 3.984375 -6.5 3.6875 -6.425781 3.40625 -6.28125 C 3.125 -6.144531 2.878906 -5.957031 2.671875 -5.71875 C 2.460938 -5.488281 2.296875 -5.210938 2.171875 -4.890625 C 2.054688 -4.566406 2 -4.222656 2 -3.859375 C 2 -3.492188 2.054688 -3.148438 2.171875 -2.828125 C 2.296875 -2.503906 2.460938 -2.21875 2.671875 -1.96875 C 2.878906 -1.726562 3.125 -1.535156 3.40625 -1.390625 C 3.6875 -1.253906 3.984375 -1.1875 4.296875 -1.1875 C 4.597656 -1.1875 4.890625 -1.253906 5.171875 -1.390625 C 5.453125 -1.535156 5.691406 -1.726562 5.890625 -1.96875 C 6.097656 -2.21875 6.257812 -2.503906 6.375 -2.828125 C 6.5 -3.148438 6.5625 -3.492188 6.5625 -3.859375 C 6.5625 -4.222656 6.5 -4.566406 6.375 -4.890625 C 6.257812 -5.210938 6.097656 -5.488281 5.890625 -5.71875 C 5.691406 -5.957031 5.453125 -6.144531 5.171875 -6.28125 C 4.890625 -6.425781 4.597656 -6.5 4.296875 -6.5 Z M 4.296875 -6.5 "/></g></g></g><g fill="#000000" fill-opacity="1"><g transform="translate(89.844503, 20.417023)"><g><path d="M 5.5625 -6.28125 C 5.488281 -6.320312 5.414062 -6.359375 5.34375 -6.390625 C 5.269531 -6.410156 5.191406 -6.429688 5.109375 -6.453125 C 5.023438 -6.472656 4.9375 -6.484375 4.84375 -6.484375 C 4.53125 -6.484375 4.238281 -6.429688 3.96875 -6.328125 C 3.695312 -6.222656 3.460938 -6.082031 3.265625 -5.90625 C 3.078125 -5.738281 2.925781 -5.539062 2.8125 -5.3125 C 2.695312 -5.082031 2.640625 -4.835938 2.640625 -4.578125 L 2.625 0 L 1.0625 0 L 1.0625 -7.71875 L 2.3125 -7.71875 L 2.625 -6.875 C 2.84375 -7.1875 3.125 -7.4375 3.46875 -7.625 C 3.820312 -7.8125 4.265625 -7.90625 4.796875 -7.90625 C 5.140625 -7.90625 5.53125 -7.851562 5.96875 -7.75 Z M 5.5625 -6.28125 "/></g></g></g><g fill="#000000" fill-opacity="1"><g transform="translate(94.903023, 20.417023)"><g><path d="M 5.09375 -0.015625 C 4.65625 0.128906 4.21875 0.21875 3.78125 0.25 C 3.351562 0.289062 2.96875 0.234375 2.625 0.078125 C 2.28125 -0.078125 2 -0.351562 1.78125 -0.75 C 1.570312 -1.144531 1.46875 -1.695312 1.46875 -2.40625 L 1.46875 -6.328125 L 0.34375 -6.328125 L 0.34375 -7.40625 L 1.46875 -7.71875 L 1.46875 -9.78125 L 3.03125 -9.78125 L 3.03125 -7.71875 L 5.125 -7.71875 L 5.125 -6.328125 L 3.03125 -6.328125 L 3.03125 -2.15625 C 3.03125 -1.90625 3.054688 -1.703125 3.109375 -1.546875 C 3.171875 -1.398438 3.269531 -1.285156 3.40625 -1.203125 C 3.550781 -1.128906 3.738281 -1.09375 3.96875 -1.09375 C 4.195312 -1.09375 4.472656 -1.113281 4.796875 -1.15625 Z M 5.09375 -0.015625 "/></g></g></g><g fill="#000000" fill-opacity="1"><g transform="translate(99.381534, 20.417023)"><g><path d="M 4.5625 0.1875 C 4 0.1875 3.472656 0.0820312 2.984375 -0.125 C 2.492188 -0.332031 2.066406 -0.617188 1.703125 -0.984375 C 1.335938 -1.347656 1.050781 -1.773438 0.84375 -2.265625 C 0.632812 -2.765625 0.53125 -3.296875 0.53125 -3.859375 C 0.53125 -4.410156 0.628906 -4.929688 0.828125 -5.421875 C 1.023438 -5.921875 1.289062 -6.351562 1.625 -6.71875 C 1.96875 -7.082031 2.363281 -7.367188 2.8125 -7.578125 C 3.269531 -7.796875 3.753906 -7.90625 4.265625 -7.90625 C 4.796875 -7.90625 5.285156 -7.8125 5.734375 -7.625 C 6.179688 -7.445312 6.566406 -7.160156 6.890625 -6.765625 C 7.222656 -6.378906 7.476562 -5.890625 7.65625 -5.296875 C 7.84375 -4.703125 7.9375 -3.988281 7.9375 -3.15625 L 2.1875 -3.15625 C 2.269531 -2.875 2.390625 -2.613281 2.546875 -2.375 C 2.710938 -2.132812 2.90625 -1.925781 3.125 -1.75 C 3.34375 -1.570312 3.585938 -1.429688 3.859375 -1.328125 C 4.128906 -1.234375 4.414062 -1.1875 4.71875 -1.1875 C 5.132812 -1.1875 5.515625 -1.257812 5.859375 -1.40625 C 6.210938 -1.5625 6.507812 -1.765625 6.75 -2.015625 L 7.71875 -1.046875 C 7.34375 -0.671875 6.882812 -0.367188 6.34375 -0.140625 C 5.800781 0.078125 5.207031 0.1875 4.5625 0.1875 Z M 4.265625 -6.484375 C 4.023438 -6.484375 3.789062 -6.429688 3.5625 -6.328125 C 3.34375 -6.234375 3.140625 -6.097656 2.953125 -5.921875 C 2.765625 -5.753906 2.601562 -5.550781 2.46875 -5.3125 C 2.34375 -5.082031 2.242188 -4.828125 2.171875 -4.546875 L 6.25 -4.546875 C 6.226562 -4.804688 6.171875 -5.050781 6.078125 -5.28125 C 5.984375 -5.519531 5.847656 -5.726562 5.671875 -5.90625 C 5.503906 -6.082031 5.300781 -6.222656 5.0625 -6.328125 C 4.832031 -6.429688 4.566406 -6.484375 4.265625 -6.484375 Z M 4.265625 -6.484375 "/></g></g></g><g fill="#000000" fill-opacity="1"><g transform="translate(106.889012, 20.417023)"><g><path d="M 8.09375 0 L 6.1875 0 L 4.203125 -2.703125 L 2.203125 0 L 0.3125 0 L 3.25 -4 L 0.515625 -7.71875 L 2.421875 -7.71875 L 4.203125 -5.3125 L 5.984375 -7.71875 L 7.890625 -7.71875 L 5.15625 -4 Z M 8.09375 0 "/></g></g></g><g clip-path="url(#ba049c6885)"><path fill="#18a2ff" d="M 27.753906 10.675781 C 27.167969 9.929688 25.101562 8.714844 23.21875 8.722656 C 20.558594 8.726562 18.9375 9.617188 17.339844 11.984375 C 16.148438 13.746094 14.484375 15.902344 13.867188 16.671875 C 13.347656 17.320312 10.777344 20.074219 8.140625 18.226562 C 6.613281 17.15625 6.714844 15.25 6.675781 14.753906 C 6.605469 13.875 8.652344 8.980469 13.210938 12.75 L 14.949219 10.699219 C 14.949219 10.699219 13.300781 8.804688 10.785156 8.714844 C 8.585938 8.636719 6.539062 9.34375 5.34375 10.894531 C 4.367188 12.160156 3.4375 14.375 3.878906 16.265625 C 4.308594 18.089844 5.121094 19.171875 5.75 19.714844 C 6.382812 20.253906 8.074219 21.382812 9.71875 21.382812 C 12.175781 21.382812 13.707031 20.59375 14.679688 19.558594 C 15.648438 18.519531 16.949219 17.074219 17.832031 15.792969 C 18.421875 14.941406 19.863281 13.011719 20.238281 12.574219 C 20.613281 12.140625 21.5 11.339844 22.433594 11.3125 C 24.292969 11.261719 25.414062 12.125 25.972656 12.679688 Z M 27.753906 10.675781 " fill-opacity="1" fill-rule="nonzero"/></g><g clip-path="url(#add3eece6f)"><path fill="#18a2ff" d="M 26.035156 17.25 C 26.035156 17.25 24.5 18.691406 23.042969 18.707031 C 22.253906 18.714844 21.621094 18.574219 20.988281 18.078125 C 20.609375 17.777344 19.726562 16.722656 19.367188 15.523438 L 17.21875 18.347656 C 17.21875 18.347656 18.808594 20.121094 19.578125 20.585938 C 20.652344 21.238281 22.40625 21.851562 24.390625 21.296875 C 26.078125 20.824219 27.300781 19.96875 27.75 19.675781 Z M 26.035156 17.25 " fill-opacity="1" fill-rule="nonzero"/></g></svg>