<svg xmlns="http://www.w3.org/2000/svg" xmlns:xlink="http://www.w3.org/1999/xlink" width="169" zoomAndPan="magnify" viewBox="0 0 126.75 30.750001" height="41" preserveAspectRatio="xMidYMid meet" version="1.0"><defs><g/><clipPath id="a32edae4ed"><path d="M 6.367188 10.457031 L 24 10.457031 L 24 20 L 6.367188 20 Z M 6.367188 10.457031 " clip-rule="nonzero"/></clipPath></defs><g fill="#000000" fill-opacity="1"><g transform="translate(27.87139, 13.734467)"><g><path d="M 4.5625 -1.015625 C 5.007812 -1.015625 5.425781 -1.125 5.8125 -1.34375 C 6.195312 -1.5625 6.523438 -1.847656 6.796875 -2.203125 L 7.640625 -1.390625 C 7.265625 -0.941406 6.8125 -0.578125 6.28125 -0.296875 C 5.75 -0.0234375 5.175781 0.109375 4.5625 0.109375 C 4 0.109375 3.46875 0 2.96875 -0.21875 C 2.46875 -0.445312 2.035156 -0.753906 1.671875 -1.140625 C 1.304688 -1.523438 1.015625 -1.972656 0.796875 -2.484375 C 0.585938 -3.003906 0.484375 -3.554688 0.484375 -4.140625 C 0.484375 -4.722656 0.585938 -5.269531 0.796875 -5.78125 C 1.015625 -6.300781 1.304688 -6.753906 1.671875 -7.140625 C 2.035156 -7.523438 2.46875 -7.828125 2.96875 -8.046875 C 3.46875 -8.273438 4 -8.390625 4.5625 -8.390625 C 5.082031 -8.390625 5.570312 -8.285156 6.03125 -8.078125 C 6.5 -7.867188 6.914062 -7.597656 7.28125 -7.265625 L 6.5625 -6.34375 C 6.300781 -6.613281 6 -6.835938 5.65625 -7.015625 C 5.3125 -7.191406 4.945312 -7.28125 4.5625 -7.28125 C 4.164062 -7.28125 3.789062 -7.195312 3.4375 -7.03125 C 3.09375 -6.863281 2.789062 -6.632812 2.53125 -6.34375 C 2.28125 -6.050781 2.078125 -5.71875 1.921875 -5.34375 C 1.765625 -4.96875 1.6875 -4.566406 1.6875 -4.140625 C 1.6875 -3.710938 1.765625 -3.304688 1.921875 -2.921875 C 2.078125 -2.546875 2.28125 -2.210938 2.53125 -1.921875 C 2.789062 -1.640625 3.09375 -1.414062 3.4375 -1.25 C 3.789062 -1.09375 4.164062 -1.015625 4.5625 -1.015625 Z M 4.5625 -1.015625 "/></g></g></g><g fill="#000000" fill-opacity="1"><g transform="translate(35.137117, 13.734467)"><g><path d="M 4.03125 -4.5625 C 3.976562 -4.582031 3.925781 -4.601562 3.875 -4.625 C 3.820312 -4.644531 3.765625 -4.660156 3.703125 -4.671875 C 3.640625 -4.691406 3.570312 -4.703125 3.5 -4.703125 C 3.28125 -4.703125 3.070312 -4.660156 2.875 -4.578125 C 2.675781 -4.503906 2.503906 -4.40625 2.359375 -4.28125 C 2.222656 -4.164062 2.113281 -4.019531 2.03125 -3.84375 C 1.957031 -3.675781 1.921875 -3.5 1.921875 -3.3125 L 1.90625 0 L 0.765625 0 L 0.765625 -5.59375 L 1.671875 -5.59375 L 1.90625 -4.984375 C 2.0625 -5.203125 2.265625 -5.378906 2.515625 -5.515625 C 2.773438 -5.660156 3.09375 -5.734375 3.46875 -5.734375 C 3.71875 -5.734375 4.003906 -5.695312 4.328125 -5.625 Z M 4.03125 -4.5625 "/></g></g></g><g fill="#000000" fill-opacity="1"><g transform="translate(38.804844, 13.734467)"><g><path d="M 3.3125 0.140625 C 2.90625 0.140625 2.523438 0.0664062 2.171875 -0.078125 C 1.816406 -0.234375 1.503906 -0.441406 1.234375 -0.703125 C 0.972656 -0.972656 0.765625 -1.285156 0.609375 -1.640625 C 0.460938 -2.003906 0.390625 -2.390625 0.390625 -2.796875 C 0.390625 -3.203125 0.457031 -3.582031 0.59375 -3.9375 C 0.738281 -4.289062 0.929688 -4.597656 1.171875 -4.859375 C 1.421875 -5.128906 1.707031 -5.34375 2.03125 -5.5 C 2.363281 -5.65625 2.71875 -5.734375 3.09375 -5.734375 C 3.476562 -5.734375 3.832031 -5.664062 4.15625 -5.53125 C 4.476562 -5.394531 4.757812 -5.1875 5 -4.90625 C 5.238281 -4.625 5.421875 -4.265625 5.546875 -3.828125 C 5.679688 -3.398438 5.75 -2.890625 5.75 -2.296875 L 1.59375 -2.296875 C 1.644531 -2.085938 1.726562 -1.894531 1.84375 -1.71875 C 1.957031 -1.550781 2.09375 -1.398438 2.25 -1.265625 C 2.414062 -1.140625 2.597656 -1.039062 2.796875 -0.96875 C 2.992188 -0.894531 3.203125 -0.859375 3.421875 -0.859375 C 3.722656 -0.859375 4 -0.910156 4.25 -1.015625 C 4.5 -1.128906 4.710938 -1.28125 4.890625 -1.46875 L 5.59375 -0.765625 C 5.320312 -0.484375 4.988281 -0.257812 4.59375 -0.09375 C 4.207031 0.0625 3.78125 0.140625 3.3125 0.140625 Z M 3.09375 -4.703125 C 2.914062 -4.703125 2.742188 -4.664062 2.578125 -4.59375 C 2.421875 -4.519531 2.273438 -4.421875 2.140625 -4.296875 C 2.003906 -4.171875 1.882812 -4.019531 1.78125 -3.84375 C 1.6875 -3.675781 1.617188 -3.492188 1.578125 -3.296875 L 4.53125 -3.296875 C 4.519531 -3.484375 4.476562 -3.660156 4.40625 -3.828125 C 4.332031 -4.003906 4.234375 -4.15625 4.109375 -4.28125 C 3.984375 -4.40625 3.835938 -4.503906 3.671875 -4.578125 C 3.503906 -4.660156 3.3125 -4.703125 3.09375 -4.703125 Z M 3.09375 -4.703125 "/></g></g></g><g fill="#000000" fill-opacity="1"><g transform="translate(44.248207, 13.734467)"><g><path d="M 2.046875 0 L 0.15625 -5.59375 L 1.375 -5.59375 L 2.671875 -1.375 L 4.0625 -5.59375 L 5.0625 -5.59375 L 6.4375 -1.40625 L 7.734375 -5.59375 L 8.9375 -5.59375 L 7.0625 0 L 5.828125 0 L 4.65625 -3.421875 L 4.5625 -3.96875 L 4.46875 -3.421875 L 3.3125 0 Z M 2.046875 0 "/></g></g></g><g fill="#000000" fill-opacity="1"><g transform="translate(52.569365, 13.734467)"><g/></g></g><g fill="#000000" fill-opacity="1"><g transform="translate(27.87139, 24.222328)"><g><path d="M 4.5625 -1.015625 C 5.007812 -1.015625 5.425781 -1.125 5.8125 -1.34375 C 6.195312 -1.5625 6.523438 -1.847656 6.796875 -2.203125 L 7.640625 -1.390625 C 7.265625 -0.941406 6.8125 -0.578125 6.28125 -0.296875 C 5.75 -0.0234375 5.175781 0.109375 4.5625 0.109375 C 4 0.109375 3.46875 0 2.96875 -0.21875 C 2.46875 -0.445312 2.035156 -0.753906 1.671875 -1.140625 C 1.304688 -1.523438 1.015625 -1.972656 0.796875 -2.484375 C 0.585938 -3.003906 0.484375 -3.554688 0.484375 -4.140625 C 0.484375 -4.722656 0.585938 -5.269531 0.796875 -5.78125 C 1.015625 -6.300781 1.304688 -6.753906 1.671875 -7.140625 C 2.035156 -7.523438 2.46875 -7.828125 2.96875 -8.046875 C 3.46875 -8.273438 4 -8.390625 4.5625 -8.390625 C 5.082031 -8.390625 5.570312 -8.285156 6.03125 -8.078125 C 6.5 -7.867188 6.914062 -7.597656 7.28125 -7.265625 L 6.5625 -6.34375 C 6.300781 -6.613281 6 -6.835938 5.65625 -7.015625 C 5.3125 -7.191406 4.945312 -7.28125 4.5625 -7.28125 C 4.164062 -7.28125 3.789062 -7.195312 3.4375 -7.03125 C 3.09375 -6.863281 2.789062 -6.632812 2.53125 -6.34375 C 2.28125 -6.050781 2.078125 -5.71875 1.921875 -5.34375 C 1.765625 -4.96875 1.6875 -4.566406 1.6875 -4.140625 C 1.6875 -3.710938 1.765625 -3.304688 1.921875 -2.921875 C 2.078125 -2.546875 2.28125 -2.210938 2.53125 -1.921875 C 2.789062 -1.640625 3.09375 -1.414062 3.4375 -1.25 C 3.789062 -1.09375 4.164062 -1.015625 4.5625 -1.015625 Z M 4.5625 -1.015625 "/></g></g></g><g fill="#000000" fill-opacity="1"><g transform="translate(35.137117, 24.222328)"><g><path d="M 3.109375 0.140625 C 2.722656 0.140625 2.359375 0.0664062 2.015625 -0.078125 C 1.671875 -0.234375 1.375 -0.441406 1.125 -0.703125 C 0.875 -0.972656 0.671875 -1.285156 0.515625 -1.640625 C 0.367188 -2.003906 0.296875 -2.390625 0.296875 -2.796875 C 0.296875 -3.203125 0.367188 -3.582031 0.515625 -3.9375 C 0.671875 -4.289062 0.875 -4.597656 1.125 -4.859375 C 1.375 -5.128906 1.671875 -5.34375 2.015625 -5.5 C 2.359375 -5.65625 2.722656 -5.734375 3.109375 -5.734375 C 3.492188 -5.734375 3.851562 -5.65625 4.1875 -5.5 C 4.53125 -5.34375 4.828125 -5.128906 5.078125 -4.859375 C 5.335938 -4.597656 5.539062 -4.289062 5.6875 -3.9375 C 5.832031 -3.582031 5.90625 -3.203125 5.90625 -2.796875 C 5.90625 -2.390625 5.832031 -2.003906 5.6875 -1.640625 C 5.539062 -1.285156 5.335938 -0.972656 5.078125 -0.703125 C 4.828125 -0.441406 4.53125 -0.234375 4.1875 -0.078125 C 3.851562 0.0664062 3.492188 0.140625 3.109375 0.140625 Z M 3.109375 -4.703125 C 2.878906 -4.703125 2.660156 -4.648438 2.453125 -4.546875 C 2.253906 -4.453125 2.078125 -4.316406 1.921875 -4.140625 C 1.773438 -3.972656 1.660156 -3.769531 1.578125 -3.53125 C 1.492188 -3.300781 1.453125 -3.054688 1.453125 -2.796875 C 1.453125 -2.523438 1.492188 -2.269531 1.578125 -2.03125 C 1.660156 -1.800781 1.773438 -1.597656 1.921875 -1.421875 C 2.078125 -1.253906 2.253906 -1.117188 2.453125 -1.015625 C 2.660156 -0.910156 2.878906 -0.859375 3.109375 -0.859375 C 3.335938 -0.859375 3.550781 -0.910156 3.75 -1.015625 C 3.957031 -1.117188 4.132812 -1.253906 4.28125 -1.421875 C 4.425781 -1.597656 4.539062 -1.800781 4.625 -2.03125 C 4.707031 -2.269531 4.75 -2.523438 4.75 -2.796875 C 4.75 -3.054688 4.707031 -3.300781 4.625 -3.53125 C 4.539062 -3.769531 4.425781 -3.972656 4.28125 -4.140625 C 4.132812 -4.316406 3.957031 -4.453125 3.75 -4.546875 C 3.550781 -4.648438 3.335938 -4.703125 3.109375 -4.703125 Z M 3.109375 -4.703125 "/></g></g></g><g fill="#000000" fill-opacity="1"><g transform="translate(40.557115, 24.222328)"><g><path d="M 4.03125 -4.5625 C 3.976562 -4.582031 3.925781 -4.601562 3.875 -4.625 C 3.820312 -4.644531 3.765625 -4.660156 3.703125 -4.671875 C 3.640625 -4.691406 3.570312 -4.703125 3.5 -4.703125 C 3.28125 -4.703125 3.070312 -4.660156 2.875 -4.578125 C 2.675781 -4.503906 2.503906 -4.40625 2.359375 -4.28125 C 2.222656 -4.164062 2.113281 -4.019531 2.03125 -3.84375 C 1.957031 -3.675781 1.921875 -3.5 1.921875 -3.3125 L 1.90625 0 L 0.765625 0 L 0.765625 -5.59375 L 1.671875 -5.59375 L 1.90625 -4.984375 C 2.0625 -5.203125 2.265625 -5.378906 2.515625 -5.515625 C 2.773438 -5.660156 3.09375 -5.734375 3.46875 -5.734375 C 3.71875 -5.734375 4.003906 -5.695312 4.328125 -5.625 Z M 4.03125 -4.5625 "/></g></g></g><g fill="#000000" fill-opacity="1"><g transform="translate(44.224842, 24.222328)"><g><path d="M 3.6875 -0.015625 C 3.375 0.0976562 3.0625 0.164062 2.75 0.1875 C 2.4375 0.207031 2.15625 0.160156 1.90625 0.046875 C 1.65625 -0.0546875 1.453125 -0.25 1.296875 -0.53125 C 1.140625 -0.820312 1.0625 -1.222656 1.0625 -1.734375 L 1.0625 -4.578125 L 0.25 -4.578125 L 0.25 -5.359375 L 1.0625 -5.59375 L 1.0625 -7.09375 L 2.203125 -7.09375 L 2.203125 -5.59375 L 3.71875 -5.59375 L 3.71875 -4.578125 L 2.203125 -4.578125 L 2.203125 -1.5625 C 2.203125 -1.375 2.222656 -1.222656 2.265625 -1.109375 C 2.304688 -1.003906 2.375 -0.925781 2.46875 -0.875 C 2.570312 -0.820312 2.707031 -0.796875 2.875 -0.796875 C 3.039062 -0.796875 3.238281 -0.8125 3.46875 -0.84375 Z M 3.6875 -0.015625 "/></g></g></g><g fill="#000000" fill-opacity="1"><g transform="translate(47.472027, 24.222328)"><g><path d="M 3.3125 0.140625 C 2.90625 0.140625 2.523438 0.0664062 2.171875 -0.078125 C 1.816406 -0.234375 1.503906 -0.441406 1.234375 -0.703125 C 0.972656 -0.972656 0.765625 -1.285156 0.609375 -1.640625 C 0.460938 -2.003906 0.390625 -2.390625 0.390625 -2.796875 C 0.390625 -3.203125 0.457031 -3.582031 0.59375 -3.9375 C 0.738281 -4.289062 0.929688 -4.597656 1.171875 -4.859375 C 1.421875 -5.128906 1.707031 -5.34375 2.03125 -5.5 C 2.363281 -5.65625 2.71875 -5.734375 3.09375 -5.734375 C 3.476562 -5.734375 3.832031 -5.664062 4.15625 -5.53125 C 4.476562 -5.394531 4.757812 -5.1875 5 -4.90625 C 5.238281 -4.625 5.421875 -4.265625 5.546875 -3.828125 C 5.679688 -3.398438 5.75 -2.890625 5.75 -2.296875 L 1.59375 -2.296875 C 1.644531 -2.085938 1.726562 -1.894531 1.84375 -1.71875 C 1.957031 -1.550781 2.09375 -1.398438 2.25 -1.265625 C 2.414062 -1.140625 2.597656 -1.039062 2.796875 -0.96875 C 2.992188 -0.894531 3.203125 -0.859375 3.421875 -0.859375 C 3.722656 -0.859375 4 -0.910156 4.25 -1.015625 C 4.5 -1.128906 4.710938 -1.28125 4.890625 -1.46875 L 5.59375 -0.765625 C 5.320312 -0.484375 4.988281 -0.257812 4.59375 -0.09375 C 4.207031 0.0625 3.78125 0.140625 3.3125 0.140625 Z M 3.09375 -4.703125 C 2.914062 -4.703125 2.742188 -4.664062 2.578125 -4.59375 C 2.421875 -4.519531 2.273438 -4.421875 2.140625 -4.296875 C 2.003906 -4.171875 1.882812 -4.019531 1.78125 -3.84375 C 1.6875 -3.675781 1.617188 -3.492188 1.578125 -3.296875 L 4.53125 -3.296875 C 4.519531 -3.484375 4.476562 -3.660156 4.40625 -3.828125 C 4.332031 -4.003906 4.234375 -4.15625 4.109375 -4.28125 C 3.984375 -4.40625 3.835938 -4.503906 3.671875 -4.578125 C 3.503906 -4.660156 3.3125 -4.703125 3.09375 -4.703125 Z M 3.09375 -4.703125 "/></g></g></g><g fill="#000000" fill-opacity="1"><g transform="translate(52.915389, 24.222328)"><g><path d="M 5.859375 0 L 4.484375 0 L 3.046875 -1.96875 L 1.59375 0 L 0.21875 0 L 2.359375 -2.90625 L 0.375 -5.59375 L 1.75 -5.59375 L 3.046875 -3.84375 L 4.34375 -5.59375 L 5.71875 -5.59375 L 3.734375 -2.90625 Z M 5.859375 0 "/></g></g></g><g clip-path="url(#a32edae4ed)"><path fill="#18a2ff" d="M 23.988281 11.933594 C 23.5625 11.394531 22.066406 10.511719 20.699219 10.515625 C 18.773438 10.519531 17.597656 11.164062 16.4375 12.878906 C 15.574219 14.15625 14.371094 15.722656 13.921875 16.277344 C 13.546875 16.75 11.683594 18.746094 9.773438 17.40625 C 8.667969 16.628906 8.738281 15.25 8.710938 14.890625 C 8.664062 14.253906 10.144531 10.703125 13.449219 13.4375 L 14.707031 11.949219 C 14.707031 11.949219 13.515625 10.578125 11.691406 10.511719 C 10.097656 10.453125 8.613281 10.96875 7.746094 12.089844 C 7.039062 13.007812 6.363281 14.613281 6.6875 15.984375 C 6.996094 17.308594 7.585938 18.089844 8.042969 18.484375 C 8.5 18.875 9.726562 19.691406 10.917969 19.691406 C 12.699219 19.691406 13.808594 19.121094 14.511719 18.371094 C 15.214844 17.617188 16.15625 16.570312 16.796875 15.640625 C 17.222656 15.027344 18.269531 13.625 18.542969 13.308594 C 18.8125 12.996094 19.457031 12.414062 20.132812 12.394531 C 21.480469 12.355469 22.292969 12.984375 22.695312 13.386719 Z M 23.988281 11.933594 " fill-opacity="1" fill-rule="nonzero"/></g><path fill="#18a2ff" d="M 22.742188 16.699219 C 22.742188 16.699219 21.628906 17.742188 20.574219 17.753906 C 20 17.761719 19.542969 17.65625 19.085938 17.296875 C 18.8125 17.082031 18.171875 16.316406 17.910156 15.445312 L 16.351562 17.492188 C 16.351562 17.492188 17.507812 18.777344 18.0625 19.117188 C 18.839844 19.589844 20.113281 20.03125 21.550781 19.628906 C 22.773438 19.285156 23.660156 18.667969 23.988281 18.453125 Z M 22.742188 16.699219 " fill-opacity="1" fill-rule="nonzero"/></svg>